<svg xmlns="http://www.w3.org/2000/svg" viewBox="0 0 240 130">
  <path d="m108 114 17-46 13 21 22-73 15 46 24-29 4 41 24-17 4 57Z" fill="#dc3c22"/>
  <path d="m124 114 17-28 15 9 6-44 18 46 20-32-3 49Z" fill="#ff962d"/>
  <path d="m148 114 14-24 14 24 17-19-5 19Z" fill="#ffe47b"/>
  <g stroke="#2e1717" stroke-width="5" stroke-linejoin="round">
    <path d="M29 41 44 27H79L91 41V116H29Z" fill="#e52b28"/>
    <path d="M45 28V12H73V28" fill="none"/>
    <path d="m79 29 24-14 11 12-24 17" fill="#343941"/>
    <path d="M37 47H83V108H37Z" fill="#c61e22" stroke="#ff6250" stroke-width="3"/>
    <path d="m43 55 34 44m0-44L43 99" fill="none" stroke="#9e1920" stroke-width="4"/>
  </g>
  <path d="m134 44 61-18 4 12-61 18Z" fill="#fff0d5" stroke="#302b2a" stroke-width="3"/>
  <path d="m134 44 13-4 4 12-13 4Z" fill="#c99258"/>
  <path d="m193 26 9-3 4 12-9 3Z" fill="#ff4b24"/>
  <path d="m202 27 7-16 6 9-3 13Z" fill="#ffd86b"/>
  <path d="M210 18q-14-15 0-17" fill="none" stroke="#bbbbb4" stroke-width="4" stroke-linecap="round"/>
</svg>
